
        <svg xmlns="http://www.w3.org/2000/svg" xmlns:xlink="http://www.w3.org/1999/xlink" version="1.1" width="3187.5" 
        height="1022.2244632417879" viewBox="0 0 3187.5 1022.2244632417879">
			
			<g transform="scale(9.375) translate(10, 10)">
				<defs id="SvgjsDefs2649"></defs><g id="SvgjsG2650" featureKey="4K7G0D-0" transform="matrix(1.1111124297734594,0,0,1.1111124297734594,-6.111326053073862,-11.52007834380229)" fill="#ff325d"><g xmlns="http://www.w3.org/2000/svg"><defs><rect id="b" x="5.5" y="10.368" width="90" height="80.132"></rect></defs><clipPath id="a"><use xmlns:xlink="http://www.w3.org/1999/xlink" xlink:href="#b" overflow="visible"></use></clipPath><path clip-path="url(#a)" fill="#ff325d" d="M17.148,21.3l31.383,54.358l-5.765,3.331c-1.51,0.871-2.937,1.139-4.231,0.793   c-2.144-0.577-3.431-2.66-3.563-2.888L9.295,32.425c-2.612-4.524,0.912-7.102,2.085-7.8l0.004,0.004L17.148,21.3z M42.1,24.575   l2.47-1.425l-4.809-8.33c-0.326-0.556-2.109-3.35-5.287-4.201c-2.054-0.554-4.208-0.189-6.401,1.078L9.958,22.158l0.011,0.027   L9.95,22.158C7.213,23.773,3.476,28.05,6.823,33.85l25.685,44.485c0.326,0.553,2.119,3.354,5.287,4.201   c2.054,0.551,4.208,0.185,6.398-1.074l8.299-4.792L33.04,42.983c-2.395-4.151-2.001-7.707-0.621-10.452l-8.681-15.036l5.76-3.327   c1.515-0.875,2.942-1.141,4.236-0.796c2.151,0.573,3.431,2.66,3.563,2.884L42.1,24.575z M77.921,50.414   c-2.974,0.225-5.536,0.511-7.69,0.859c-2.142,0.354-3.491,0.688-4.032,1.001c-0.574,0.333-0.357,1.502,0.658,3.5   c0.816,1.604,1.468,2.997,1.953,4.182c0.276,0.118,0.794,0.225,1.543,0.326c0.749,0.103,1.77,0.196,3.072,0.282   c0.235,0.24,0.463,0.498,0.69,0.765c0.224,0.268,0.443,0.554,0.667,0.836c-0.918,0.131-1.755,0.275-2.526,0.443   c-0.758,0.173-1.468,0.361-2.115,0.589c0.059,0.161,0.113,0.337,0.157,0.538c0.043,0.196,0.071,0.411,0.079,0.647   c-0.138-0.103-0.287-0.221-0.429-0.354c-0.148-0.126-0.303-0.283-0.459-0.46c-0.529,0.483-1.071,1.009-1.605,1.594   c-0.529,0.597-1.067,1.239-1.596,1.938c-0.225-0.53-0.455-1.157-0.695-1.896c-0.015-0.043-0.023-0.082-0.023-0.105   c0.581-1.173,1.021-2.115,1.304-2.81c0.29-0.698,0.445-1.185,0.463-1.468c-0.707-0.969-1.542-2.181-2.496-3.629   c-1.303-2.001-2.252-2.833-2.84-2.492c-0.534,0.312-1.483,1.295-2.833,2.959c-1.365,1.667-2.912,3.76-4.636,6.267l-0.192-0.334   c-0.422-0.737-0.587-1.495-0.491-2.287c0.096-0.789,0.482-1.771,1.158-2.943l-0.725-1.263c-0.199-0.346-0.299-0.645-0.299-0.883   c0-0.247,0.096-0.424,0.295-0.537c0.203-0.118,0.41-0.114,0.614,0.007c0.214,0.122,0.418,0.361,0.62,0.706l0.196,0.346l1.188-2.695   l-0.726-1.264c-0.198-0.349-0.298-0.64-0.294-0.879c0-0.236,0.1-0.408,0.298-0.525c0.2-0.121,0.406-0.121,0.61,0   c0.21,0.121,0.414,0.349,0.613,0.694l0.21,0.365l1.802-4.188c-1.373-2.369-2.265-4.139-2.679-5.301   c-0.399-1.152-0.392-1.862,0.05-2.118c0.448-0.263,1.067,0.063,1.848,0.966c0.781,0.905,1.872,2.577,3.284,5.01l4.52,0.534   l-0.204-0.361c-0.204-0.345-0.306-0.639-0.298-0.883c0-0.231,0.103-0.408,0.298-0.525c0.197-0.118,0.404-0.118,0.608,0.003   c0.208,0.118,0.42,0.347,0.616,0.695l0.726,1.259l2.931,0.326l-0.203-0.354c-0.2-0.345-0.299-0.64-0.299-0.887   c0-0.243,0.099-0.42,0.299-0.538c0.195-0.117,0.403-0.104,0.615,0.013c0.208,0.126,0.412,0.36,0.62,0.707l0.727,1.259   c1.353,0,2.393,0.152,3.127,0.467c0.732,0.31,1.313,0.836,1.733,1.565L77.921,50.414z M94.165,66.995L68.48,22.519   c-0.871-1.527-2.797-3.547-5.336-4.226c-2.016-0.542-4.154-0.173-6.35,1.095l-18.15,10.476c-0.302,0.176-7.361,4.37-3.135,11.691   l25.685,44.478c0.875,1.526,2.799,3.547,5.332,4.227c2.021,0.541,4.159,0.172,6.35-1.096l18.158-10.479   c1.521-0.879,3.547-2.805,4.229-5.336C95.797,71.326,95.428,69.188,94.165,66.995"></path></g></g><g id="SvgjsG2651" featureKey="wPuqcM-0" transform="matrix(1.782848987840236,0,0,1.782848987840236,118.93028992719294,21.552508093734776)" fill="#ff325d"><path d="M20.54 6 l-4.6 14 l-2.1 0 l-3.28 -8.86 l-3.26 8.86 l-2.1 0 l-4.6 -14 l3.08 0 l2.68 8.3 l3.06 -8.3 l2.3 0 l3.06 8.3 l2.68 -8.3 l3.08 0 z M29.86 9.6 l2.86 0 l0 10.4 l-2.86 0 l0 -1.28 c-0.06 0.42 -1.08 1.48 -2.88 1.48 c-2.38 0 -5.14 -1.72 -5.14 -5.42 c0 -3.58 2.76 -5.36 5.14 -5.36 c1.8 0 2.82 1.12 2.88 1.34 l0 -1.16 z M27.380000000000003 17.66 c1.4 0 2.62 -0.96 2.62 -2.88 c0 -1.86 -1.22 -2.82 -2.62 -2.82 c-1.44 0 -2.76 0.98 -2.76 2.82 c0 1.9 1.32 2.88 2.76 2.88 z M40.980000000000004 9.44 c1.98 0 3.94 1.3 3.94 4.58 l0 5.98 l-2.86 0 l0 -5.78 c0 -1.7 -0.66 -2.28 -1.76 -2.28 c-1.52 0 -2.42 1.44 -2.64 2.16 l0 5.9 l-2.86 0 l0 -10.4 l2.86 0 l0 1.92 c0.2 -0.54 1.32 -2.08 3.32 -2.08 z M54.540000000000006 5.859999999999999 l2.86 0 l0 5.3 l0 8.84 l-2.86 0 l0 -1.28 c-0.06 0.42 -1.08 1.48 -2.88 1.48 c-2.38 0 -5.14 -1.72 -5.14 -5.42 c0 -3.58 2.76 -5.36 5.14 -5.36 c1.8 0 2.82 1.12 2.88 1.34 l0 -4.9 z M52.06000000000001 17.66 c1.4 0 2.62 -0.96 2.62 -2.88 c0 -1.86 -1.22 -2.82 -2.62 -2.82 c-1.44 0 -2.76 0.98 -2.76 2.82 c0 1.9 1.32 2.88 2.76 2.88 z M64.60000000000001 9.42 c2.36 0 5.62 1.78 5 6.38 l-7.56 0 c0.36 1.3 1.44 1.98 2.84 1.98 c1.3 0 1.8 -0.3 2.54 -0.7 l1.58 1.54 c-0.9 0.94 -2.18 1.58 -4.22 1.58 c-2.6 0 -5.64 -1.78 -5.64 -5.36 c0 -3.64 3.1 -5.42 5.46 -5.42 z M64.60000000000001 11.86 c-1.04 0 -2.14 0.64 -2.52 1.92 l5 0 c-0.32 -1.28 -1.46 -1.92 -2.48 -1.92 z M77.88000000000001 9.44 c0.26 0 0.5 0 0.76 0.06 l0 2.74 c-0.24 -0.06 -0.48 -0.06 -0.68 -0.06 c-1.92 0 -3.5 1.38 -3.68 3.38 l0 4.44 l-2.86 0 l0 -10.4 l2.86 0 l0 2.6 c0.46 -1.58 1.72 -2.76 3.6 -2.76 z M83.14000000000001 5.859999999999999 l0 14.14 l-2.86 0 l0 -14.14 l2.86 0 z M89.02000000000001 20.16 c-1.98 0 -3.94 -1.3 -3.94 -4.58 l0 -5.98 l2.86 0 l0 5.78 c0 1.7 0.66 2.28 1.76 2.28 c1.52 0 2.42 -1.44 2.64 -2.16 l0 -5.9 l2.86 0 l0 10.4 l-2.86 0 l0 -1.92 c-0.2 0.54 -1.32 2.08 -3.32 2.08 z M102.26 12.719999999999999 c-0.32 -0.74 -0.78 -1.02 -1.34 -1.02 c-0.52 0 -1 0.32 -1 0.78 c0 0.44 0.28 0.72 0.84 0.92 l1.26 0.46 c1.52 0.54 3 1.1 3 3.12 c0 2.08 -2.06 3.26 -4.16 3.26 c-1.9 0 -3.7 -1.12 -4.12 -2.94 l2.26 -0.7 c0.26 0.7 0.82 1.36 1.86 1.36 c0.74 0 1.3 -0.48 1.3 -1 c0 -0.34 -0.24 -0.64 -0.86 -0.88 l-1.2 -0.42 c-2.04 -0.74 -2.98 -1.8 -2.98 -3.22 c0 -1.88 1.74 -3.02 3.68 -3.02 c1.96 0 3.26 1.06 3.86 2.68 z M111.4 17.6 c0.54 0 0.94 -0.06 1.38 -0.22 l0 2.4 c-0.44 0.2 -1.12 0.34 -2.12 0.34 c-1.62 0 -2.98 -0.56 -2.98 -3.5 l0 -4.66 l-1.46 0 l0 -2.36 l1.46 0 l0 -2.44 l2.86 0 l0 2.44 l2.22 0 l0 2.36 l-2.22 0 l0 4.64 c0 0.48 0.14 1 0.86 1 z"></path></g>
			</g>
		</svg>
	